<?xml version="1.0" encoding="UTF-8"?>
<svg id="Camada_2" data-name="Camada 2" xmlns="http://www.w3.org/2000/svg" viewBox="0 0 1236.07 358.23">
  <defs>
    <style>
      .cls-1 {
        fill: #6cc4c7;
      }

      .cls-2 {
        fill: #fff;
      }

      .cls-3 {
        fill: #35b6ae;
      }

      .cls-4 {
        fill: #1d857d;
      }
    </style>
  </defs>
  <g id="Camada_1-2" data-name="Camada 1">
    <path class="cls-2" d="M1058.79.02c130.79-1.93,210.3,131.53,163.97,249.97-55.4,141.61-261.76,145.5-320.94,4.41C853.08,138.19,929.42,1.93,1058.79.02ZM1143.99,133.74l-83.42-42-82.59,42.49,83.98,42,82.02-42.49ZM1064,271.72l79.99-40.47v-94.34l-80.29,41.85.3,92.97ZM1060,178.72l-82.41-40.52.56,91.27,81.84,41.24v-92Z"/>
    <polygon class="cls-2" points="79.5 6.72 217 220.72 217 6.72 296 6.72 296 351.72 217.5 351.72 79 137.72 79 351.72 0 351.72 0 6.72 79.5 6.72"/>
    <polygon class="cls-2" points="682.5 6.72 744.16 98.06 746.49 99.74 809.5 6.72 907 6.72 795.17 166.06 929 351.72 827.5 351.72 745.02 234.72 664.5 351.72 567 351.72 696.87 166.04 589 6.72 682.5 6.72"/>
    <polygon class="cls-2" points="544 6.72 544 75.72 425 75.72 425 143.72 539 143.72 539 213.72 425 213.72 425 282.72 544 282.72 544 351.72 346 351.72 346 6.72 544 6.72"/>
    <g>
      <polygon class="cls-4" points="1059.82 273.66 976.45 231.3 976.45 135.34 1060 178.05 1059.82 273.66"/>
      <polygon class="cls-3" points="1145.87 232.38 1060 273.84 1060 178.05 1145.87 134.45 1145.87 232.38"/>
      <polygon class="cls-1" points="1060 178.05 976.45 135.34 1060.09 91.73 1145.87 134.49 1060 178.05"/>
    </g>
  </g>
</svg>